<?xml version="1.0" encoding="UTF-8" standalone="no"?>
<svg width="203px" height="60px" viewBox="0 0 203 60" version="1.1" xmlns="http://www.w3.org/2000/svg" xmlns:xlink="http://www.w3.org/1999/xlink" xmlns:sketch="http://www.bohemiancoding.com/sketch/ns">
    <!-- Generator: Sketch 3.0.4 (8054) - http://www.bohemiancoding.com/sketch -->
    <title>Download_on_the_App_Store_Badge_US-UK_135x40</title>
    <desc>Created with Sketch.</desc>
    <defs></defs>
    <a xlink:href="http://www.google.com"> <text x="10" y="25" >An example link.</text> </a>
    <!-- xlink:href="https://itunes.apple.com/app/id778576249?mt=8" -->
    <g id="Page-1" stroke="none" stroke-width="1" fill="none" fill-rule="evenodd" sketch:type="MSPage">
        <g id="Download_on_the_App_Store_Badge_US-UK_135x40" sketch:type="MSLayerGroup">
            <g id="Group" sketch:type="MSShapeGroup">
                <path d="M195.777711,60 L7.11101481,60 C3.19085926,60 0,56.808 0,52.9005 L0,7.089 C0,3.18 3.19085926,0 7.11101481,0 L195.777711,0 C199.696363,0 203,3.18 203,7.089 L203,52.9005 C203,56.808 199.696363,60 195.777711,60 L195.777711,60 L195.777711,60 Z" id="Shape" fill="#A6A6A6"></path>
                <path d="M201.544415,52.902 C201.544415,56.076 198.967067,58.647 195.779215,58.647 L7.11101481,58.647 C3.92466667,58.647 1.3382963,56.076 1.3382963,52.902 L1.3382963,7.0875 C1.3382963,3.915 3.92466667,1.335 7.11101481,1.335 L195.777711,1.335 C198.967067,1.335 201.542911,3.915 201.542911,7.0875 L201.544415,52.902 L201.544415,52.902 Z" id="Shape" fill="#000000"></path>
                <g transform="translate(19.548148, 9.000000)" id="Shape" fill="#FFFFFF">
                    <path d="M25.755437,20.676 C25.7118296,15.8415 29.7237111,13.4895 29.907163,13.38 C27.6350667,10.0755 24.1133926,9.624 22.8758444,9.588 C19.9180593,9.2775 17.0489926,11.3535 15.5422815,11.3535 C14.0054963,11.3535 11.6852815,9.618 9.18462222,9.669 C5.9666963,9.7185 2.95628148,11.577 1.30521481,14.463 C-2.10217778,20.3475 0.439081481,28.995 3.70362222,33.7515 C5.33664444,36.081 7.24484444,38.682 9.7424963,38.5905 C12.1860148,38.49 13.098763,37.0365 16.0475259,37.0365 C18.9692222,37.0365 19.8263333,38.5905 22.3736074,38.532 C24.9960667,38.49 26.6471333,36.192 28.2230148,33.8415 C30.110163,31.1715 30.8680296,28.542 30.8981037,28.407 C30.8364519,28.386 25.8050593,26.4705 25.755437,20.676 L25.755437,20.676 Z"></path>
                    <path d="M20.9435852,6.459 C22.2578222,4.8195 23.157037,2.589 22.9074222,0.3255 C21.005237,0.4095 18.6263778,1.638 17.2565037,3.2415 C16.0445185,4.6545 14.9618519,6.9705 15.2415407,9.1485 C17.3783037,9.3075 19.5722074,8.073 20.9435852,6.459 L20.9435852,6.459 Z"></path>
                </g>
                <g transform="translate(63.155556, 27.000000)" id="Shape" fill="#FFFFFF">
                    <path d="M17.5106296,20.256 L14.0957185,20.256 L12.2251111,14.3925 L5.7230963,14.3925 L3.94120741,20.256 L0.616518519,20.256 L7.05838519,0.294 L11.0371852,0.294 L17.5106296,20.256 L17.5106296,20.256 Z M11.6612222,11.9325 L9.96955556,6.72 C9.79061481,6.1875 9.45528889,4.9335 8.96057037,2.9595 L8.90042222,2.9595 C8.70343704,3.8085 8.38615556,5.0625 7.95008148,6.72 L6.28848889,11.9325 L11.6612222,11.9325 L11.6612222,11.9325 Z"></path>
                    <path d="M34.0769333,12.882 C34.0769333,15.33 33.4138,17.265 32.0875333,18.6855 C30.8996074,19.95 29.4244741,20.5815 27.663637,20.5815 C25.7629556,20.5815 24.3975926,19.9005 23.5660444,18.5385 L23.5058963,18.5385 L23.5058963,26.121 L20.3,26.121 L20.3,10.6005 C20.3,9.0615 20.2594,7.482 20.1812074,5.862 L23.0006519,5.862 L23.1795926,8.1435 L23.2397407,8.1435 C24.3088741,6.4245 25.9313704,5.5665 28.1087333,5.5665 C29.8109259,5.5665 31.2319259,6.237 32.3687259,7.5795 C33.5085333,8.9235 34.0769333,10.6905 34.0769333,12.882 L34.0769333,12.882 Z M30.8108889,12.999 C30.8108889,11.598 30.4951111,10.443 29.8605481,9.534 C29.1673407,8.586 28.2365481,8.112 27.0696741,8.112 C26.2787259,8.112 25.5599556,8.376 24.9178741,8.8965 C24.2742889,9.4215 23.8532519,10.107 23.6562667,10.956 C23.5570222,11.352 23.5074,11.676 23.5074,11.931 L23.5074,14.331 C23.5074,15.378 23.8291926,16.2615 24.4727778,16.983 C25.116363,17.7045 25.9524222,18.0645 26.9809556,18.0645 C28.1884296,18.0645 29.1282444,17.5995 29.8004,16.6725 C30.4740593,15.744 30.8108889,14.52 30.8108889,12.999 L30.8108889,12.999 Z"></path>
                    <path d="M50.6733111,12.882 C50.6733111,15.33 50.0101778,17.265 48.6824074,18.6855 C47.4959852,19.95 46.0208519,20.5815 44.2600148,20.5815 C42.3593333,20.5815 40.9939704,19.9005 40.1639259,18.5385 L40.1037778,18.5385 L40.1037778,26.121 L36.8978815,26.121 L36.8978815,10.6005 C36.8978815,9.0615 36.8572815,7.482 36.7790889,5.862 L39.5985333,5.862 L39.7774741,8.1435 L39.8376222,8.1435 C40.9052519,6.4245 42.5277481,5.5665 44.7066148,5.5665 C46.4073037,5.5665 47.8283037,6.237 48.9681111,7.5795 C50.1034074,8.9235 50.6733111,10.6905 50.6733111,12.882 L50.6733111,12.882 Z M47.4072667,12.999 C47.4072667,11.598 47.0899852,10.443 46.4554222,9.534 C45.7622148,8.586 44.8344296,8.112 43.6660519,8.112 C42.8736,8.112 42.1563333,8.376 41.5127481,8.8965 C40.869163,9.4215 40.4496296,10.107 40.2526444,10.956 C40.1549037,11.352 40.1037778,11.676 40.1037778,11.931 L40.1037778,14.331 C40.1037778,15.378 40.4255704,16.2615 41.0661481,16.983 C41.7097333,17.703 42.5457926,18.0645 43.5773333,18.0645 C44.7848074,18.0645 45.7246222,17.5995 46.3967778,16.6725 C47.070437,15.744 47.4072667,14.52 47.4072667,12.999 L47.4072667,12.999 Z"></path>
                    <path d="M69.2290148,14.658 C69.2290148,16.356 68.6380593,17.7375 67.451637,18.804 C66.1479259,19.9695 64.3329556,20.5515 62.0007111,20.5515 C59.8474074,20.5515 58.1211556,20.1375 56.814437,19.308 L57.5572667,16.6425 C58.9647333,17.4915 60.509037,17.9175 62.1916815,17.9175 C63.3991556,17.9175 64.3389704,17.6445 65.0141333,17.1015 C65.6862889,16.5585 66.0216148,15.8295 66.0216148,14.9205 C66.0216148,14.1105 65.7449333,13.428 65.1900667,12.8745 C64.6382074,12.321 63.716437,11.8065 62.4292667,11.331 C58.925637,10.0275 57.1753259,8.118 57.1753259,5.607 C57.1753259,3.966 57.788837,2.6205 59.017363,1.5735 C60.2413778,0.525 61.8744,0.0015 63.9164296,0.0015 C65.7374148,0.0015 67.2501407,0.318 68.4576148,0.9495 L67.6561407,3.5565 C66.528363,2.9445 65.2532222,2.6385 63.8262074,2.6385 C62.6984296,2.6385 61.8172593,2.916 61.1857037,3.468 C60.6518889,3.9615 60.3842296,4.563 60.3842296,5.2755 C60.3842296,6.0645 60.6894815,6.717 61.3029926,7.23 C61.8368074,7.704 62.8066963,8.217 64.214163,8.7705 C65.9359037,9.462 67.2005185,10.2705 68.0140222,11.1975 C68.8245185,12.1215 69.2290148,13.278 69.2290148,14.658 L69.2290148,14.658 Z"></path>
                    <path d="M79.8286222,8.262 L76.2949185,8.262 L76.2949185,15.2505 C76.2949185,17.028 76.9174519,17.916 78.1655259,17.916 C78.738437,17.916 79.2136074,17.8665 79.5895333,17.7675 L79.6782519,20.196 C79.0466963,20.4315 78.2151481,20.55 77.1851111,20.55 C75.9189926,20.55 74.9295556,20.1645 74.2152963,19.395 C73.5040444,18.624 73.146163,17.331 73.146163,15.5145 L73.146163,8.259 L71.0409778,8.259 L71.0409778,5.859 L73.146163,5.859 L73.146163,3.2235 L76.2949185,2.2755 L76.2949185,5.859 L79.8286222,5.859 L79.8286222,8.262 L79.8286222,8.262 Z"></path>
                    <path d="M95.7723926,12.9405 C95.7723926,15.153 95.1378296,16.9695 93.8717111,18.39 C92.5439407,19.8525 90.7816,20.5815 88.5846889,20.5815 C86.4674741,20.5815 84.7818222,19.881 83.5247259,18.48 C82.2676296,17.079 81.6390815,15.3105 81.6390815,13.179 C81.6390815,10.9485 82.2856741,9.1215 83.5833704,7.701 C84.8780593,6.279 86.625363,5.568 88.8222741,5.568 C90.9394889,5.568 92.6431852,6.2685 93.9288519,7.671 C95.1588815,9.0315 95.7723926,10.788 95.7723926,12.9405 L95.7723926,12.9405 Z M92.4462,13.044 C92.4462,11.7165 92.162,10.578 91.5860815,9.6285 C90.9139259,8.4795 89.9530593,7.9065 88.7079926,7.9065 C87.4193185,7.9065 86.4404074,8.481 85.7682519,9.6285 C85.1923333,10.5795 84.9081333,11.736 84.9081333,13.104 C84.9081333,14.4315 85.1923333,15.57 85.7682519,16.518 C86.4614593,17.667 87.4298444,18.24 88.6794222,18.24 C89.903437,18.24 90.8643037,17.655 91.5575111,16.488 C92.1484667,15.5205 92.4462,14.37 92.4462,13.044 L92.4462,13.044 Z"></path>
                    <path d="M106.193059,8.6745 C105.875778,8.616 105.537444,8.586 105.18257,8.586 C104.054793,8.586 103.182644,9.0105 102.569133,9.861 C102.035319,10.611 101.767659,11.559 101.767659,12.7035 L101.767659,20.256 L98.5632667,20.256 L98.5933407,10.395 C98.5933407,8.736 98.5527407,7.2255 98.4730444,5.8635 L101.265422,5.8635 L101.382711,8.6175 L101.47143,8.6175 C101.809763,7.671 102.343578,6.909 103.074378,6.3375 C103.788637,5.823 104.560037,5.5665 105.391585,5.5665 C105.687815,5.5665 105.955474,5.5875 106.193059,5.625 L106.193059,8.6745 L106.193059,8.6745 Z"></path>
                    <path d="M120.530874,12.378 C120.530874,12.951 120.493281,13.434 120.413585,13.8285 L110.795896,13.8285 C110.833489,15.2505 111.298133,16.338 112.191333,17.088 C113.00183,17.7585 114.049911,18.0945 115.337081,18.0945 C116.761089,18.0945 118.060289,17.868 119.228667,17.4135 L119.730904,19.6335 C118.365541,20.2275 116.75357,20.523 114.893489,20.523 C112.655978,20.523 110.899652,19.866 109.621504,18.5535 C108.346363,17.241 107.707289,15.4785 107.707289,13.2675 C107.707289,11.097 108.301252,9.2895 109.490681,7.848 C110.735748,6.309 112.418393,5.5395 114.535607,5.5395 C116.61523,5.5395 118.189607,6.309 119.258741,7.848 C120.105326,9.0705 120.530874,10.5825 120.530874,12.378 L120.530874,12.378 Z M117.473844,11.5485 C117.494896,10.6005 117.285881,9.7815 116.851311,9.09 C116.296444,8.2005 115.443844,7.7565 114.296519,7.7565 C113.248437,7.7565 112.395837,8.19 111.744733,9.06 C111.210919,9.7515 110.893637,10.581 110.795896,11.547 L117.473844,11.547 L117.473844,11.5485 Z"></path>
                </g>
                <g transform="translate(66.162963, 10.500000)" id="Shape" fill="#FFFFFF">
                    <path d="M7.5937037,4.5135 C7.5937037,6.279 7.0628963,7.608 6.00278519,8.5005 C5.02086667,9.324 3.62542963,9.7365 1.81797778,9.7365 C0.92177037,9.7365 0.154881481,9.6975 -0.4872,9.6195 L-0.4872,-0.027 C0.350362963,-0.162 1.25258519,-0.231 2.22698519,-0.231 C3.94872593,-0.231 5.24642222,0.1425 6.12157778,0.8895 C7.10199259,1.734 7.5937037,2.9415 7.5937037,4.5135 L7.5937037,4.5135 Z M5.93211111,4.557 C5.93211111,3.4125 5.62836296,2.535 5.02086667,1.923 C4.41337037,1.3125 3.52618519,1.0065 2.35780741,1.0065 C1.86158519,1.0065 1.43904444,1.0395 1.08868148,1.1085 L1.08868148,8.442 C1.28265926,8.472 1.63753333,8.4855 2.1533037,8.4855 C3.35927407,8.4855 4.29006667,8.151 4.94568148,7.482 C5.6012963,6.813 5.93211111,5.838 5.93211111,4.557 L5.93211111,4.557 Z"></path>
                    <path d="M16.4039037,6.0555 C16.4039037,7.143 16.092637,8.034 15.4701037,8.733 C14.8174963,9.4515 13.9528667,9.81 12.8732074,9.81 C11.8326444,9.81 11.0041037,9.4665 10.3860815,8.7765 C9.76956296,8.088 9.4613037,7.2195 9.4613037,6.1725 C9.4613037,5.0775 9.77858519,4.179 10.4161556,3.4815 C11.0537259,2.784 11.910837,2.4345 12.9904963,2.4345 C14.0310593,2.4345 14.8671185,2.778 15.5001778,3.4665 C16.1016593,4.1355 16.4039037,4.9995 16.4039037,6.0555 L16.4039037,6.0555 Z M14.7693778,6.1065 C14.7693778,5.454 14.6280296,4.8945 14.346837,4.428 C14.0160222,3.864 13.545363,3.582 12.9333556,3.582 C12.3002963,3.582 11.8191111,3.864 11.4882963,4.428 C11.2056,4.8945 11.0657556,5.463 11.0657556,6.135 C11.0657556,6.7875 11.2071037,7.347 11.4882963,7.8135 C11.829637,8.3775 12.3048074,8.6595 12.9183185,8.6595 C13.5198,8.6595 13.991963,8.373 14.3318,7.7985 C14.6235185,7.323 14.7693778,6.759 14.7693778,6.1065 L14.7693778,6.1065 Z"></path>
                    <path d="M28.217,2.5785 L25.999037,9.6495 L24.5554815,9.6495 L23.6367185,6.579 C23.4036444,5.8125 23.2141778,5.0505 23.0668148,4.2945 L23.0382444,4.2945 C22.9014074,5.0715 22.7119407,5.832 22.4683407,6.579 L21.492437,9.6495 L20.0323407,9.6495 L17.9467037,2.5785 L19.5661926,2.5785 L20.3676667,5.94 C20.5616444,6.735 20.721037,7.4925 20.8488519,8.2095 L20.8774222,8.2095 C20.9947111,7.6185 21.1886889,6.8655 21.462363,5.955 L22.4683407,2.58 L23.7525037,2.58 L24.7163778,5.883 C24.9494519,6.6885 25.1389185,7.464 25.2847778,8.211 L25.3283852,8.211 C25.4351481,7.4835 25.5960444,6.708 25.8095704,5.883 L26.6696889,2.58 L28.217,2.58 L28.217,2.5785 Z"></path>
                    <path d="M36.3866222,9.6495 L34.8107407,9.6495 L34.8107407,5.5995 C34.8107407,4.3515 34.3355704,3.7275 33.3822222,3.7275 C32.9145704,3.7275 32.5371407,3.8985 32.2439185,4.242 C31.9537037,4.5855 31.8063407,4.9905 31.8063407,5.454 L31.8063407,9.648 L30.2304593,9.648 L30.2304593,4.599 C30.2304593,3.978 30.2109111,3.3045 30.1733185,2.5755 L31.5582296,2.5755 L31.6319111,3.681 L31.6755185,3.681 C31.8589704,3.3375 32.1326444,3.054 32.4920296,2.8275 C32.9190815,2.5635 33.3972593,2.43 33.9205481,2.43 C34.5821778,2.43 35.1325333,2.643 35.5701111,3.0705 C36.1144519,3.594 36.3866222,4.3755 36.3866222,5.4135 L36.3866222,9.6495 L36.3866222,9.6495 Z"></path>
                    <path d="M40.7323259,9.6495 L39.1579481,9.6495 L39.1579481,-0.666 L40.7323259,-0.666 L40.7323259,9.6495 L40.7323259,9.6495 Z"></path>
                    <path d="M50.0101778,6.0555 C50.0101778,7.143 49.6989111,8.034 49.0763778,8.733 C48.4237704,9.4515 47.557637,9.81 46.4794815,9.81 C45.4374148,9.81 44.6088741,9.4665 43.9923556,8.7765 C43.375837,8.088 43.0675778,7.2195 43.0675778,6.1725 C43.0675778,5.0775 43.3848593,4.179 44.0224296,3.4815 C44.66,2.784 45.5171111,2.4345 46.5952667,2.4345 C47.6373333,2.4345 48.4718889,2.778 49.1064519,3.4665 C49.7079333,4.1355 50.0101778,4.9995 50.0101778,6.0555 L50.0101778,6.0555 Z M48.3741481,6.1065 C48.3741481,5.454 48.2328,4.8945 47.9516074,4.428 C47.6222963,3.864 47.1501333,3.582 46.5396296,3.582 C45.9050667,3.582 45.4238815,3.864 45.0945704,4.428 C44.8118741,4.8945 44.6720296,5.463 44.6720296,6.135 C44.6720296,6.7875 44.8133778,7.347 45.0945704,7.8135 C45.4359111,8.3775 45.9110815,8.6595 46.5245926,8.6595 C47.1260741,8.6595 47.5967333,8.373 47.9365704,7.7985 C48.2297926,7.323 48.3741481,6.759 48.3741481,6.1065 L48.3741481,6.1065 Z"></path>
                    <path d="M57.636963,9.6495 L56.2219778,9.6495 L56.1046889,8.835 L56.0610815,8.835 C55.5768889,9.4845 54.8866889,9.81 53.9904815,9.81 C53.3213333,9.81 52.78,9.5955 52.3724963,9.1695 C52.0025852,8.7825 51.8176296,8.301 51.8176296,7.7295 C51.8176296,6.8655 52.1785185,6.207 52.9048074,5.751 C53.6295926,5.295 54.6491037,5.0715 55.961837,5.082 L55.961837,4.95 C55.961837,4.0185 55.4716296,3.5535 54.4897111,3.5535 C53.7904889,3.5535 53.1739704,3.729 52.6416593,4.077 L52.3213704,3.045 C52.9799926,2.6385 53.7934963,2.4345 54.7528593,2.4345 C56.6054222,2.4345 57.5347111,3.4095 57.5347111,5.3595 L57.5347111,7.9635 C57.5347111,8.67 57.5692963,9.2325 57.636963,9.6495 L57.636963,9.6495 Z M56.0009333,7.2195 L56.0009333,6.129 C54.2626519,6.099 53.3935111,6.5745 53.3935111,7.554 C53.3935111,7.923 53.4927556,8.199 53.6957556,8.3835 C53.8987556,8.568 54.1573926,8.6595 54.4656519,8.6595 C54.8115037,8.6595 55.1348,8.55 55.4295259,8.3325 C55.7257556,8.1135 55.9077037,7.836 55.9753704,7.4955 C55.9919111,7.419 56.0009333,7.326 56.0009333,7.2195 L56.0009333,7.2195 Z"></path>
                    <path d="M66.5915185,9.6495 L65.1930741,9.6495 L65.1193926,8.514 L65.0757852,8.514 C64.6291852,9.378 63.8683111,9.81 62.7991778,9.81 C61.9450741,9.81 61.2338222,9.4755 60.6699333,8.8065 C60.1060444,8.1375 59.8248519,7.269 59.8248519,6.2025 C59.8248519,5.058 60.1301037,4.131 60.7436148,3.423 C61.3375778,2.763 62.0653704,2.433 62.9315037,2.433 C63.8833481,2.433 64.5494889,2.7525 64.9284222,3.393 L64.9584963,3.393 L64.9584963,-0.666 L66.5358815,-0.666 L66.5358815,7.7445 C66.5358815,8.433 66.5539259,9.0675 66.5915185,9.6495 L66.5915185,9.6495 Z M64.9584963,6.6675 L64.9584963,5.4885 C64.9584963,5.2845 64.9434593,5.1195 64.9148889,4.9935 C64.8261704,4.6155 64.6352,4.2975 64.3449852,4.041 C64.051763,3.7845 63.6983926,3.6555 63.2908889,3.6555 C62.7029407,3.6555 62.2428074,3.888 61.9044741,4.3545 C61.5691481,4.821 61.3992296,5.4165 61.3992296,6.144 C61.3992296,6.843 61.5601259,7.41 61.8834222,7.8465 C62.224763,8.3115 62.6848963,8.544 63.2608148,8.544 C63.7780889,8.544 64.1916074,8.3505 64.5058815,7.962 C64.8096296,7.6035 64.9584963,7.1715 64.9584963,6.6675 L64.9584963,6.6675 Z"></path>
                    <path d="M80.0692148,6.0555 C80.0692148,7.143 79.7579481,8.034 79.1354148,8.733 C78.4828074,9.4515 77.6196815,9.81 76.5385185,9.81 C75.4994593,9.81 74.6709185,9.4665 74.0513926,8.7765 C73.4348741,8.088 73.1266148,7.2195 73.1266148,6.1725 C73.1266148,5.0775 73.4438963,4.179 74.0814667,3.4815 C74.719037,2.784 75.5761481,2.4345 76.6573111,2.4345 C77.6963704,2.4345 78.5339333,2.778 79.1654889,3.4665 C79.7669704,4.1355 80.0692148,4.9995 80.0692148,6.0555 L80.0692148,6.0555 Z M78.4361926,6.1065 C78.4361926,5.454 78.2948444,4.8945 78.0136519,4.428 C77.6813333,3.864 77.2121778,3.582 76.5986667,3.582 C75.9671111,3.582 75.4859259,3.864 75.1536074,4.428 C74.8709111,4.8945 74.7310667,5.463 74.7310667,6.135 C74.7310667,6.7875 74.8724148,7.347 75.1536074,7.8135 C75.4949481,8.3775 75.9701185,8.6595 76.5836296,8.6595 C77.1851111,8.6595 77.6587778,8.373 77.9986148,7.7985 C78.2888296,7.323 78.4361926,6.759 78.4361926,6.1065 L78.4361926,6.1065 Z"></path>
                    <path d="M88.5425852,9.6495 L86.9682074,9.6495 L86.9682074,5.5995 C86.9682074,4.3515 86.493037,3.7275 85.5381852,3.7275 C85.0705333,3.7275 84.6931037,3.8985 84.4013852,4.242 C84.1096667,4.5855 83.9638074,4.9905 83.9638074,5.454 L83.9638074,9.648 L82.3864222,9.648 L82.3864222,4.599 C82.3864222,3.978 82.3683778,3.3045 82.3307852,2.5755 L83.7141926,2.5755 L83.7878741,3.681 L83.8314815,3.681 C84.016437,3.3375 84.2901111,3.054 84.6479926,2.8275 C85.0765481,2.5635 85.5532222,2.43 86.0780148,2.43 C86.7381407,2.43 87.2884963,2.643 87.7260741,3.0705 C88.2719185,3.594 88.5425852,4.3755 88.5425852,5.4135 L88.5425852,9.6495 L88.5425852,9.6495 Z"></path>
                    <path d="M99.1482074,3.756 L97.4129333,3.756 L97.4129333,7.191 C97.4129333,8.064 97.7211926,8.5005 98.3316963,8.5005 C98.6143926,8.5005 98.8489704,8.4765 99.0339259,8.427 L99.0745259,9.6195 C98.7632593,9.7365 98.3542519,9.795 97.8505111,9.795 C97.2279778,9.795 96.7437852,9.606 96.3934222,9.228 C96.0415556,8.85 95.8671259,8.214 95.8671259,7.3215 L95.8671259,3.756 L94.8310741,3.756 L94.8310741,2.5785 L95.8671259,2.5785 L95.8671259,1.2825 L97.4114296,0.8175 L97.4114296,2.577 L99.1467037,2.577 L99.1467037,3.756 L99.1482074,3.756 Z"></path>
                    <path d="M107.490756,9.6495 L105.91337,9.6495 L105.91337,5.6295 C105.91337,4.362 105.4382,3.7275 104.486356,3.7275 C103.755556,3.7275 103.256326,4.095 102.982652,4.83 C102.936037,4.9845 102.90897,5.1735 102.90897,5.3955 L102.90897,9.648 L101.334593,9.648 L101.334593,-0.666 L102.90897,-0.666 L102.90897,3.5955 L102.939044,3.5955 C103.435267,2.82 104.146519,2.433 105.068289,2.433 C105.720896,2.433 106.260726,2.646 106.689281,3.0735 C107.223096,3.606 107.490756,4.398 107.490756,5.445 L107.490756,9.6495 L107.490756,9.6495 Z"></path>
                    <path d="M116.096452,5.7795 C116.096452,6.0615 116.0754,6.2985 116.037807,6.492 L111.311667,6.492 C111.332719,7.191 111.558274,7.7235 111.995852,8.0925 C112.395837,8.4225 112.911607,8.5875 113.543163,8.5875 C114.242385,8.5875 114.879956,8.4765 115.45437,8.253 L115.700978,9.345 C115.028822,9.636 114.237874,9.7815 113.322119,9.7815 C112.224415,9.7815 111.359785,9.459 110.734244,8.814 C110.105696,8.169 109.79443,7.3035 109.79443,6.2175 C109.79443,5.151 110.084644,4.263 110.669585,3.555 C111.280089,2.799 112.105622,2.421 113.147689,2.421 C114.1672,2.421 114.941607,2.799 115.464896,3.555 C115.887437,4.155 116.096452,4.8975 116.096452,5.7795 L116.096452,5.7795 Z M114.592748,5.373 C114.604778,4.9065 114.501022,4.5045 114.287496,4.1655 C114.013822,3.729 113.597296,3.51 113.033407,3.51 C112.519141,3.51 112.099607,3.723 111.779319,4.1505 C111.517674,4.491 111.362793,4.8975 111.311667,5.373 L114.592748,5.373 L114.592748,5.373 Z"></path>
                </g>
            </g>
        </g>
    </g>
</svg>
