<?xml version="1.0" encoding="UTF-8" standalone="no"?>
<svg width="120px" height="120px" viewBox="0 0 120 120" version="1.1" xmlns="http://www.w3.org/2000/svg" xmlns:xlink="http://www.w3.org/1999/xlink" xmlns:sketch="http://www.bohemiancoding.com/sketch/ns">
    <!-- Generator: Sketch 3.0.4 (8054) - http://www.bohemiancoding.com/sketch -->
    <title>Icon-60@2x</title>
    <desc>Created with Sketch.</desc>
    <defs>
        <linearGradient x1="50%" y1="0%" x2="50%" y2="100%" id="linearGradient-1">
            <stop stop-color="#FFFFFF" offset="0%"></stop>
            <stop stop-color="#000000" offset="100%"></stop>
        </linearGradient>
        <path id="path-2" d="M78.163,0 C90.21,0 96.232,0 102.717,2.05 C109.797,4.627 115.373,10.203 117.95,17.283 C120,23.767 120,29.791 120,41.837 L120,78.163 C120,90.21 120,96.232 117.95,102.717 C115.373,109.797 109.797,115.373 102.717,117.949 C96.232,120 90.21,120 78.163,120 L41.837,120 C29.79,120 23.767,120 17.283,117.949 C10.203,115.373 4.627,109.797 2.05,102.717 C0,96.232 0,90.21 0,78.163 L0,41.837 C0,29.791 0,23.767 2.05,17.283 C4.627,10.203 10.203,4.627 17.283,2.05 C23.767,0 29.79,0 41.837,0 L78.163,0 Z"></path>
    </defs>
    <g id="Page-1" stroke="none" stroke-width="1" fill="none" fill-rule="evenodd" sketch:type="MSPage">
        <g id="Icon-60@2x" sketch:type="MSArtboardGroup">
            <mask id="mask-3" sketch:name="Icon Shape" fill="white">
                <use xlink:href="#path-2"></use>
            </mask>
            <g id="Icon-Shape">
                <use fill="#0075A0" sketch:type="MSShapeGroup" xlink:href="#path-2"></use>
                <use fill-opacity="0.2" fill="url(#linearGradient-1)" xlink:href="#path-2"></use>
            </g>
            <path d="M94.6479736,91.3886145 C92.2288085,87.8354657 88.1843274,83.5263925 82.5144091,78.4612654 C79.7172494,75.8909025 77.0524278,73.5851703 74.5198643,71.5439997 C71.9873008,69.5028291 69.5870714,67.6884825 67.319104,66.1009053 C65.3535324,68.3688727 63.0289007,70.7502026 60.3451394,73.2449667 C57.6613781,75.7397307 54.6185676,78.347854 51.2166166,81.0694148 C47.436671,84.0177723 43.8835755,86.5880967 40.5572235,88.7804652 C37.2308714,90.9728336 34.0179659,92.8249791 30.9184105,94.3369573 C30.3892182,93.5053693 29.784436,92.7493915 29.1040458,92.0690013 C28.5748534,91.3886111 27.2896912,90.1034489 25.2485206,88.2134762 C31.3720324,85.3407176 36.9473684,82.0900132 41.974696,78.4612654 C47.0020235,74.8325177 51.6701862,70.7502378 55.9793241,66.2143031 C59.9860664,61.9051652 63.4068658,57.4637959 66.241825,52.8900618 C69.0767841,48.3163277 71.3636169,43.4969694 73.1023918,38.4318424 L35.0007313,38.5452402 L35.0007313,30.4939964 L77.0713148,30.6073942 L79.2258729,29.4734163 L84.3287739,35.0299084 L82.0608179,37.7514556 C81.153631,40.9266098 79.9062677,44.2907109 78.3186906,47.8438597 C77.2603058,50.0362281 76.1830375,52.1340664 75.0868533,54.1374375 C73.9906691,56.1408087 72.8000041,58.0496525 71.5148226,59.8640264 C74.9167736,62.2831915 79.2636458,65.7228904 84.5555695,70.1832261 C88.0331194,73.1315836 91.0759299,75.9098019 93.6840923,78.5179643 C96.2922547,81.1261268 98.5034897,83.5263562 100.317864,85.7187246 L94.6479736,91.3886145 Z" id="ス-3" fill="#FCFCFC" sketch:type="MSShapeGroup" mask="url(#mask-3)"></path>
        </g>
    </g>
</svg>