<?xml version="1.0" encoding="UTF-8" standalone="no"?>
<svg width="120px" height="120px" viewBox="0 0 120 120" version="1.1" xmlns="http://www.w3.org/2000/svg" xmlns:xlink="http://www.w3.org/1999/xlink" xmlns:sketch="http://www.bohemiancoding.com/sketch/ns">
    <!-- Generator: Sketch 3.0.4 (8054) - http://www.bohemiancoding.com/sketch -->
    <title>iTunes Icon 2</title>
    <desc>Created with Sketch.</desc>
    <defs>
        <path id="path-1" d="M41.837,0 L78.163,0 C90.21,0 96.232,0 102.717,2.05 C109.797,4.627 115.373,10.203 117.95,17.283 C120,23.767 120,29.791 120,41.837 L120,78.163 C120,90.21 120,96.232 117.95,102.717 C115.373,109.797 109.797,115.373 102.717,117.949 C96.232,120 90.21,120 78.163,120 L41.837,120 C29.79,120 23.767,120 17.283,117.949 C10.203,115.373 4.627,109.797 2.05,102.717 C0,96.232 0,90.21 0,78.163 L0,41.837 C0,29.791 0,23.767 2.05,17.283 C4.627,10.203 10.203,4.627 17.283,2.05 C23.767,0 29.79,0 41.837,0 L41.837,0"></path>
        <linearGradient x1="50%" y1="0%" x2="50%" y2="100%" id="linearGradient-3">
            <stop stop-color="#FFFFFF" offset="0%"></stop>
            <stop stop-color="#000000" offset="100%"></stop>
        </linearGradient>
        <rect id="path-4" x="0" y="0" width="120" height="120"></rect>
    </defs>
    <g id="Scratchpad" stroke="none" stroke-width="1" fill="none" fill-rule="evenodd" sketch:type="MSPage">
        <g id="iTunes-Icon-2" sketch:type="MSArtboardGroup">
            <mask id="mask-2" sketch:name="Icon Shape 2" fill="white">
                <use xlink:href="#path-1"></use>
            </mask>
            <use id="Icon-Shape-2" fill="#D7D7D7" sketch:type="MSShapeGroup" xlink:href="#path-1"></use>
            <g id="Rectangle-298">
                <use fill="#0075A0" sketch:type="MSShapeGroup" mask="url(#mask-2)" xlink:href="#path-4"></use>
                <use fill-opacity="0.100000001" fill="url(#linearGradient-3)" xlink:href="#path-4"></use>
            </g>
            <path d="M95.6869217,91.4258282 C93.2667715,87.8712326 89.2206435,83.5604046 83.5484164,78.4932151 C80.7501177,75.9218055 78.084211,73.6151344 75.5506162,71.5731326 C73.0170214,69.5311309 70.6158146,67.7160454 68.3469238,66.1278218 C66.3805517,68.3967127 64.0549735,70.7790123 61.3701193,73.2747922 C58.6852652,75.7705722 55.6412156,78.3797575 52.2378793,81.1024265 C48.4563946,84.0519846 44.9018523,86.6233557 41.5741457,88.8166168 C38.2464391,91.009878 35.0322253,92.8627777 31.9314078,94.3753716 C31.402,93.5434449 30.7969715,92.7871593 30.1163042,92.1064921 C29.5868964,91.4258248 28.3012108,90.1401393 26.2592091,88.2493969 C32.3852143,85.3754685 37.9628207,82.1234404 42.9921954,78.4932151 C48.0215701,74.8629897 52.6916337,70.7790475 57.0025263,66.2412658 C61.0109001,61.9303732 64.4330925,57.4871953 67.269206,52.9115987 C70.1053196,48.3360022 72.3930835,43.5146815 74.1325665,38.4474919 L36.0153909,38.5609359 L36.0153909,30.5064137 L78.1031056,30.6198577 L80.2585411,29.4854179 L85.36352,35.0441727 L83.0946405,37.7668281 C82.1870842,40.9432753 80.9392129,44.3087462 79.3509893,47.8633419 C78.2921736,50.056603 77.2144666,52.1552956 76.1178361,54.1594825 C75.0212055,56.1636694 73.8300557,58.0732905 72.5443508,59.8884032 C75.9476871,62.3085534 80.2963293,65.7496529 85.590408,70.2118049 C89.0693739,73.161363 92.1134235,75.9407126 94.722648,78.5499371 C97.3318724,81.1591616 99.5440078,83.5603683 101.35912,85.7536295 L95.6869217,91.4258282 Z" id="ス-3" fill="#FCFCFC" sketch:type="MSShapeGroup" mask="url(#mask-2)"></path>
        </g>
    </g>
</svg>